<svg width="30" height="30" viewBox="0 0 30 30" fill="none" xmlns="http://www.w3.org/2000/svg">
<path fill-rule="evenodd" clip-rule="evenodd" d="M3.96447 24.7855C5.42893 26.25 7.78595 26.25 12.5 26.25H17.3618C16.6587 25.1715 16.25 23.8835 16.25 22.5C16.25 22.1235 16.2803 21.754 16.3385 21.3939C16.0961 21.2244 15.9375 20.9432 15.9375 20.625C15.9375 20.1157 16.3436 19.7013 16.8496 19.6878C17.6491 17.9064 19.1849 16.5272 21.0696 15.9375H2.5V16.25C2.5 20.964 2.5 23.3211 3.96447 24.7855ZM7.5 22.8125C6.98223 22.8125 6.5625 22.3928 6.5625 21.875L6.5625 19.375C6.5625 18.8572 6.98223 18.4375 7.5 18.4375C8.01777 18.4375 8.4375 18.8572 8.4375 19.375V21.875C8.4375 22.3928 8.01777 22.8125 7.5 22.8125ZM11.25 22.8125C10.7322 22.8125 10.3125 22.3928 10.3125 21.875V19.375C10.3125 18.8572 10.7322 18.4375 11.25 18.4375C11.7678 18.4375 12.1875 18.8572 12.1875 19.375V21.875C12.1875 22.3928 11.7678 22.8125 11.25 22.8125Z" fill="#260404"/>
<path fill-rule="evenodd" clip-rule="evenodd" d="M3.96447 5.21447C2.5 6.67893 2.5 9.03595 2.5 13.75V14.0625H27.5V13.75C27.5 9.03595 27.5 6.67893 26.0355 5.21447C24.5711 3.75 22.214 3.75 17.5 3.75H12.5C7.78595 3.75 5.42893 3.75 3.96447 5.21447ZM11.25 11.5625C10.7322 11.5625 10.3125 11.1428 10.3125 10.625V8.125C10.3125 7.60723 10.7322 7.1875 11.25 7.1875C11.7678 7.1875 12.1875 7.60723 12.1875 8.125V10.625C12.1875 11.1428 11.7678 11.5625 11.25 11.5625ZM6.5625 10.625C6.5625 11.1428 6.98223 11.5625 7.5 11.5625C8.01777 11.5625 8.4375 11.1428 8.4375 10.625V8.125C8.4375 7.60723 8.01777 7.1875 7.5 7.1875C6.98223 7.1875 6.5625 7.60723 6.5625 8.125L6.5625 10.625ZM15.9375 9.375C15.9375 8.85723 16.3572 8.4375 16.875 8.4375H22.5C23.0178 8.4375 23.4375 8.85723 23.4375 9.375C23.4375 9.89277 23.0178 10.3125 22.5 10.3125H16.875C16.3572 10.3125 15.9375 9.89277 15.9375 9.375Z" fill="#260404"/>
<path fill-rule="evenodd" clip-rule="evenodd" d="M18.6608 20.9418C19.147 19.0699 21.0661 17.8125 23.131 17.8125C24.7275 17.8125 26.1812 18.538 27.0135 19.7059C27.314 20.1276 27.2157 20.713 26.7941 21.0135C26.3724 21.314 25.787 21.2157 25.4865 20.7941C25.0369 20.1631 24.1764 19.6875 23.131 19.6875C21.9229 19.6875 21.0227 20.2899 20.632 21.0374C20.74 21.0917 20.8391 21.1679 20.9226 21.2654C21.2593 21.6587 21.2133 22.2505 20.82 22.5872L20.0898 23.2122C19.7389 23.5126 19.2215 23.5126 18.8705 23.2122L18.1404 22.5872C17.747 22.2505 17.7011 21.6587 18.0378 21.2654C18.2022 21.0733 18.4275 20.964 18.6608 20.9418ZM26.1602 21.7878C26.5111 21.4874 27.0286 21.4874 27.3795 21.7878L28.1097 22.4128C28.503 22.7495 28.5489 23.3413 28.2122 23.7346C28.0478 23.9267 27.8225 24.036 27.5893 24.0582C27.103 25.9301 25.1839 27.1875 23.119 27.1875C21.5225 27.1875 20.0688 26.462 19.2365 25.2941C18.9361 24.8724 19.0343 24.287 19.456 23.9865C19.8776 23.686 20.463 23.7843 20.7635 24.2059C21.2132 24.8369 22.0737 25.3125 23.119 25.3125C24.3272 25.3125 25.2274 24.7101 25.618 23.9626C25.5101 23.9083 25.4109 23.8321 25.3275 23.7346C24.9908 23.3413 25.0367 22.7495 25.4301 22.4128L26.1602 21.7878Z" fill="#260404"/>
</svg>
