<svg width="30" height="30" viewBox="0 0 30 30" fill="none" xmlns="http://www.w3.org/2000/svg">
<path d="M27.5 10.625C27.5 6.13769 23.8623 2.5 19.375 2.5C16.7714 2.5 14.4538 3.72787 12.9669 5.63401C19.3089 5.8792 24.375 11.098 24.375 17.5C24.375 17.6379 24.3727 17.7752 24.368 17.912L24.7833 18.0231C25.9912 18.3463 27.0963 17.2412 26.7731 16.0333L26.6139 15.4383C26.4853 14.9576 26.5626 14.4498 26.7693 13.9972C27.2385 12.97 27.5 11.828 27.5 10.625Z" fill="white"/>
<path fill-rule="evenodd" clip-rule="evenodd" d="M22.5 17.5C22.5 23.0228 18.0228 27.5 12.5 27.5C10.9556 27.5 9.49301 27.1499 8.18719 26.5247C7.73839 26.3099 7.22992 26.2344 6.74923 26.3631L5.21669 26.7731C4.00877 27.0963 2.90369 25.9912 3.22689 24.7833L3.63694 23.2508C3.76556 22.7701 3.69012 22.2616 3.47525 21.8128C2.85009 20.507 2.5 19.0444 2.5 17.5C2.5 11.9772 6.97715 7.5 12.5 7.5C18.0228 7.5 22.5 11.9772 22.5 17.5ZM8.125 18.75C8.81536 18.75 9.375 18.1904 9.375 17.5C9.375 16.8096 8.81536 16.25 8.125 16.25C7.43464 16.25 6.875 16.8096 6.875 17.5C6.875 18.1904 7.43464 18.75 8.125 18.75ZM12.5 18.75C13.1904 18.75 13.75 18.1904 13.75 17.5C13.75 16.8096 13.1904 16.25 12.5 16.25C11.8096 16.25 11.25 16.8096 11.25 17.5C11.25 18.1904 11.8096 18.75 12.5 18.75ZM16.875 18.75C17.5654 18.75 18.125 18.1904 18.125 17.5C18.125 16.8096 17.5654 16.25 16.875 16.25C16.1846 16.25 15.625 16.8096 15.625 17.5C15.625 18.1904 16.1846 18.75 16.875 18.75Z" fill="white"/>
</svg>
